<svg xmlns="http://www.w3.org/2000/svg" xmlns:xlink="http://www.w3.org/1999/xlink" width="500" zoomAndPan="magnify" viewBox="0 0 375 374.999991" height="500" preserveAspectRatio="xMidYMid meet" version="1.0"><defs><g/><clipPath id="7bacfaa422"><path d="M 45.523438 45.523438 L 355.691406 45.523438 L 355.691406 355.691406 L 45.523438 355.691406 Z M 45.523438 45.523438 " clip-rule="nonzero"/></clipPath><clipPath id="d78551d68b"><path d="M 0.523438 0.523438 L 310.691406 0.523438 L 310.691406 310.691406 L 0.523438 310.691406 Z M 0.523438 0.523438 " clip-rule="nonzero"/></clipPath><clipPath id="7b792f16c1"><rect x="0" width="311" y="0" height="311"/></clipPath><clipPath id="d354cabecb"><path d="M 19.308594 19.308594 L 338.0625 19.308594 L 338.0625 29.25 L 19.308594 29.25 Z M 327.910156 29.25 L 338.0625 29.25 L 338.0625 327.910156 L 327.910156 327.910156 Z M 19.308594 29.25 L 29.25 29.25 L 29.25 327.910156 L 19.308594 327.910156 Z M 19.308594 327.910156 L 338.0625 327.910156 L 338.0625 338.0625 L 19.308594 338.0625 Z M 19.308594 327.910156 " clip-rule="nonzero"/></clipPath><clipPath id="be954d4cd3"><path d="M 0.308594 0.308594 L 319.0625 0.308594 L 319.0625 10.25 L 0.308594 10.25 Z M 308.910156 10.25 L 319.0625 10.25 L 319.0625 308.910156 L 308.910156 308.910156 Z M 0.308594 10.25 L 10.25 10.25 L 10.25 308.910156 L 0.308594 308.910156 Z M 0.308594 308.910156 L 319.0625 308.910156 L 319.0625 319.0625 L 0.308594 319.0625 Z M 0.308594 308.910156 " clip-rule="nonzero"/></clipPath><clipPath id="3cc80acd71"><rect x="0" width="320" y="0" height="320"/></clipPath><clipPath id="5725251f4a"><rect x="0" width="245" y="0" height="275"/></clipPath></defs><g clip-path="url(#7bacfaa422)"><g transform="matrix(1, 0, 0, 1, 45, 45)"><g clip-path="url(#7b792f16c1)"><g clip-path="url(#d78551d68b)"><path fill="#ffd600" d="M 0.523438 0.523438 L 310.691406 0.523438 L 310.691406 310.691406 L 0.523438 310.691406 Z M 0.523438 0.523438 " fill-opacity="1" fill-rule="nonzero"/></g></g></g></g><g clip-path="url(#d354cabecb)"><g transform="matrix(1, 0, 0, 1, 19, 19)"><g clip-path="url(#3cc80acd71)"><g clip-path="url(#be954d4cd3)"><path fill="#000000" d="M 0.308594 0.308594 L 319.0625 0.308594 L 319.0625 319.0625 L 0.308594 319.0625 Z M 0.308594 0.308594 " fill-opacity="1" fill-rule="nonzero"/></g></g></g></g><g transform="matrix(1, 0, 0, 1, 70, 45)"><g clip-path="url(#5725251f4a)"><g fill="#000000" fill-opacity="1"><g transform="translate(0.780093, 89.167952)"><g><path d="M 5.546875 0 L 5.546875 -61.65625 L 29.234375 -61.65625 C 33.816406 -61.65625 38.101562 -60.859375 42.09375 -59.265625 C 46.09375 -57.679688 49.546875 -55.507812 52.453125 -52.75 C 55.359375 -50 57.644531 -46.710938 59.3125 -42.890625 C 60.988281 -39.078125 61.828125 -35 61.828125 -30.65625 C 61.828125 -26.363281 60.988281 -22.335938 59.3125 -18.578125 C 57.644531 -14.828125 55.359375 -11.582031 52.453125 -8.84375 C 49.546875 -6.113281 46.09375 -3.957031 42.09375 -2.375 C 38.101562 -0.789062 33.816406 0 29.234375 0 Z M 29.15625 -50.296875 L 18.3125 -50.296875 L 18.3125 -11.359375 L 29.15625 -11.359375 C 31.851562 -11.359375 34.390625 -11.859375 36.765625 -12.859375 C 39.148438 -13.859375 41.222656 -15.222656 42.984375 -16.953125 C 44.742188 -18.679688 46.125 -20.71875 47.125 -23.0625 C 48.125 -25.414062 48.625 -27.945312 48.625 -30.65625 C 48.625 -33.414062 48.125 -36 47.125 -38.40625 C 46.125 -40.8125 44.742188 -42.894531 42.984375 -44.65625 C 41.222656 -46.414062 39.148438 -47.796875 36.765625 -48.796875 C 34.390625 -49.796875 31.851562 -50.296875 29.15625 -50.296875 Z M 29.15625 -50.296875 "/></g></g></g><g fill="#000000" fill-opacity="1"><g transform="translate(66.305294, 89.167952)"><g><path d="M 5.546875 0 L 5.546875 -61.65625 L 18.3125 -61.65625 L 18.3125 0 Z M 5.546875 0 "/></g></g></g><g fill="#000000" fill-opacity="1"><g transform="translate(90.789213, 89.167952)"><g><path d="M 66.765625 -30.734375 C 66.765625 -26.210938 65.984375 -22 64.421875 -18.09375 C 62.867188 -14.195312 60.726562 -10.851562 58 -8.0625 C 55.269531 -5.269531 51.992188 -3.066406 48.171875 -1.453125 C 44.359375 0.160156 40.25 0.96875 35.84375 0.96875 C 31.269531 0.96875 26.984375 0.144531 22.984375 -1.5 C 18.992188 -3.144531 15.546875 -5.390625 12.640625 -8.234375 C 9.734375 -11.078125 7.425781 -14.4375 5.71875 -18.3125 C 4.019531 -22.195312 3.171875 -26.367188 3.171875 -30.828125 C 3.171875 -35.285156 4.003906 -39.453125 5.671875 -43.328125 C 7.347656 -47.203125 9.640625 -50.5625 12.546875 -53.40625 C 15.453125 -56.257812 18.898438 -58.507812 22.890625 -60.15625 C 26.890625 -61.800781 31.148438 -62.625 35.671875 -62.625 C 40.773438 -62.625 45.585938 -61.59375 50.109375 -59.53125 C 54.628906 -57.476562 58.359375 -54.660156 61.296875 -51.078125 L 52.40625 -42.890625 C 50.226562 -45.472656 47.71875 -47.453125 44.875 -48.828125 C 42.03125 -50.210938 38.960938 -50.90625 35.671875 -50.90625 C 32.910156 -50.90625 30.335938 -50.390625 27.953125 -49.359375 C 25.578125 -48.335938 23.523438 -46.929688 21.796875 -45.140625 C 20.066406 -43.347656 18.71875 -41.234375 17.75 -38.796875 C 16.78125 -36.359375 16.296875 -33.703125 16.296875 -30.828125 C 16.296875 -27.953125 16.796875 -25.28125 17.796875 -22.8125 C 18.796875 -20.34375 20.175781 -18.210938 21.9375 -16.421875 C 23.695312 -14.628906 25.796875 -13.21875 28.234375 -12.1875 C 30.671875 -11.164062 33.269531 -10.65625 36.03125 -10.65625 C 40.375 -10.65625 44.113281 -11.859375 47.25 -14.265625 C 50.394531 -16.671875 52.347656 -19.753906 53.109375 -23.515625 L 34.875 -23.515625 L 34.875 -34.609375 L 66.765625 -34.609375 Z M 66.765625 -30.734375 "/></g></g></g><g fill="#000000" fill-opacity="1"><g transform="translate(0.780093, 168.127071)"><g><path d="M 5.546875 0 L 5.546875 -61.65625 L 18.3125 -61.65625 L 18.3125 0 Z M 5.546875 0 "/></g></g></g><g fill="#000000" fill-opacity="1"><g transform="translate(25.264012, 168.127071)"><g><path d="M 1.578125 -50.375 L 1.578125 -61.65625 L 55.84375 -61.65625 L 55.84375 -50.375 L 35.140625 -50.375 L 35.140625 0 L 22.375 0 L 22.375 -50.375 Z M 1.578125 -50.375 "/></g></g></g><g fill="#000000" fill-opacity="1"><g transform="translate(83.215077, 168.127071)"><g><path d="M -0.359375 0 L 25.015625 -61.65625 L 39.8125 -61.65625 L 64.828125 0 L 51 0 L 44.75 -16.203125 L 19.296875 -16.203125 L 12.953125 0 Z M 23.25 -26.421875 L 40.875 -26.421875 L 32.15625 -49.140625 Z M 23.25 -26.421875 "/></g></g></g><g fill="#000000" fill-opacity="1"><g transform="translate(148.211848, 168.127071)"><g><path d="M 5.546875 0 L 5.546875 -61.65625 L 18.3125 -61.65625 L 18.3125 -11.28125 L 52.046875 -11.28125 L 52.046875 0 Z M 5.546875 0 "/></g></g></g><g fill="#000000" fill-opacity="1"><g transform="translate(0.780093, 247.08619)"><g><path d="M 5.546875 0 L 5.546875 -61.65625 L 18.3125 -61.65625 L 18.3125 -11.28125 L 52.046875 -11.28125 L 52.046875 0 Z M 5.546875 0 "/></g></g></g><g fill="#000000" fill-opacity="1"><g transform="translate(56.617437, 247.08619)"><g><path d="M 5.546875 0 L 5.546875 -61.65625 L 52.9375 -61.65625 L 52.9375 -50.5625 L 18.3125 -50.5625 L 18.3125 -36.46875 L 41.125 -36.46875 L 41.125 -25.71875 L 18.3125 -25.71875 L 18.3125 -11.09375 L 53.28125 -11.09375 L 53.28125 0 Z M 5.546875 0 "/></g></g></g><g fill="#000000" fill-opacity="1"><g transform="translate(113.951993, 247.08619)"><g><path d="M -0.359375 0 L 25.015625 -61.65625 L 39.8125 -61.65625 L 64.828125 0 L 51 0 L 44.75 -16.203125 L 19.296875 -16.203125 L 12.953125 0 Z M 23.25 -26.421875 L 40.875 -26.421875 L 32.15625 -49.140625 Z M 23.25 -26.421875 "/></g></g></g><g fill="#000000" fill-opacity="1"><g transform="translate(178.948764, 247.08619)"><g><path d="M 5.546875 0 L 5.546875 -61.65625 L 29.234375 -61.65625 C 33.816406 -61.65625 38.101562 -60.859375 42.09375 -59.265625 C 46.09375 -57.679688 49.546875 -55.507812 52.453125 -52.75 C 55.359375 -50 57.644531 -46.710938 59.3125 -42.890625 C 60.988281 -39.078125 61.828125 -35 61.828125 -30.65625 C 61.828125 -26.363281 60.988281 -22.335938 59.3125 -18.578125 C 57.644531 -14.828125 55.359375 -11.582031 52.453125 -8.84375 C 49.546875 -6.113281 46.09375 -3.957031 42.09375 -2.375 C 38.101562 -0.789062 33.816406 0 29.234375 0 Z M 29.15625 -50.296875 L 18.3125 -50.296875 L 18.3125 -11.359375 L 29.15625 -11.359375 C 31.851562 -11.359375 34.390625 -11.859375 36.765625 -12.859375 C 39.148438 -13.859375 41.222656 -15.222656 42.984375 -16.953125 C 44.742188 -18.679688 46.125 -20.71875 47.125 -23.0625 C 48.125 -25.414062 48.625 -27.945312 48.625 -30.65625 C 48.625 -33.414062 48.125 -36 47.125 -38.40625 C 46.125 -40.8125 44.742188 -42.894531 42.984375 -44.65625 C 41.222656 -46.414062 39.148438 -47.796875 36.765625 -48.796875 C 34.390625 -49.796875 31.851562 -50.296875 29.15625 -50.296875 Z M 29.15625 -50.296875 "/></g></g></g></g></g></svg>